<svg width="96" height="97" viewBox="0 0 96 97" fill="none" xmlns="http://www.w3.org/2000/svg">
<path d="M87.5751 13.2731C82.1333 7.83092 74.9 4.83383 67.2083 4.83423C60.0529 4.83463 53.296 7.43173 48.0066 12.1752C42.7196 7.43493 35.9658 4.83983 28.8113 4.83983C28.8105 4.83983 28.8093 4.83983 28.8081 4.83983C21.1136 4.84063 13.8799 7.83892 8.44088 13.2815C2.99789 18.7221 0 25.9558 0 33.6495C0 41.3441 2.99749 48.5786 8.44008 54.0208L9.12686 54.708C9.12566 54.774 9.12206 54.84 9.12206 54.9063C9.12206 57.4319 10.1068 59.8046 11.8908 61.5825C13.4935 63.186 15.5698 64.1412 17.8029 64.3216C17.8021 64.3736 17.7993 64.4252 17.7993 64.4776C17.8005 67.0015 18.7849 69.373 20.57 71.1545C22.354 72.9377 24.7255 73.9196 27.2474 73.9196C27.2478 73.9196 27.2478 73.9196 27.2478 73.9196C27.3014 73.9196 27.3542 73.9164 27.4078 73.9156C27.581 76.0728 28.4845 78.1803 30.1285 79.825C31.7332 81.4334 33.8115 82.3905 36.0466 82.5701C36.0458 82.6185 36.043 82.6665 36.043 82.7149C36.043 85.2388 37.027 87.6115 38.8105 89.3935C40.5925 91.1806 42.966 92.165 45.4931 92.165C45.4935 92.165 45.4931 92.165 45.4935 92.165C48.0166 92.165 50.3889 91.1834 52.1748 89.3995L58.3938 83.1733C59.341 82.2273 60.0597 81.1142 60.5285 79.901C61.7457 79.4302 62.8564 78.7143 63.8 77.7703C65.5095 76.062 66.4843 73.8128 66.5655 71.4077C68.9702 71.3285 71.2189 70.3538 72.9253 68.6454C74.5508 67.0211 75.5124 64.9096 75.6732 62.6397C75.692 62.6397 75.7104 62.6401 75.7292 62.6401C78.1471 62.6397 80.5678 61.7221 82.4145 59.8854C83.1537 59.1454 83.7533 58.3038 84.2044 57.3935L87.5751 54.0236C98.8079 42.7948 98.8083 24.5139 87.5751 13.2731ZM16.1302 57.3375C15.4802 56.6891 15.1218 55.8255 15.1218 54.906C15.1218 53.9836 15.4814 53.1152 16.1326 52.4632L22.3484 46.2507C23.0015 45.5975 23.8691 45.2379 24.7915 45.2379C25.7114 45.2379 26.5754 45.5963 27.2282 46.2499C28.5725 47.5926 28.5733 49.7833 27.2362 51.1273L26.8878 51.4753C26.8542 51.5081 26.819 51.5389 26.7858 51.5725L21.0068 57.3523C20.358 57.9994 19.4969 58.3558 18.5801 58.3558H18.5797C17.6569 58.3558 16.7882 57.9954 16.1302 57.3375ZM27.2478 67.9199C26.3278 67.9199 25.4626 67.5615 24.8099 66.9095C24.1583 66.2591 23.7995 65.3948 23.7991 64.4748C23.7987 63.5528 24.1583 62.6857 24.8119 62.0321L25.2371 61.6069C25.2431 61.6009 25.2495 61.5953 25.2555 61.5893L31.08 55.7675C31.7264 55.1467 32.57 54.8036 33.4667 54.8036C34.3899 54.8036 35.2595 55.1639 35.9114 55.8135C37.2554 57.1587 37.2554 59.3494 35.9155 60.6917L29.6861 66.9075C29.0345 67.5607 28.1685 67.9199 27.2478 67.9199ZM34.3739 75.5856C33.0316 74.2428 33.0332 72.0549 34.3759 70.7106L40.5957 64.4976C41.2505 63.8424 42.1188 63.4816 43.0396 63.4816C43.9567 63.4816 44.8203 63.84 45.4739 64.4944C46.1255 65.1444 46.4843 66.0095 46.4847 66.9303C46.4851 67.8523 46.1263 68.7194 45.4775 69.369L39.2485 75.5908C38.5982 76.2447 37.7342 76.6043 36.8158 76.6043C35.8963 76.6039 35.0299 76.2431 34.3739 75.5856ZM47.9326 85.1572C47.2814 85.8076 46.4155 86.1656 45.4935 86.1656C44.5719 86.1656 43.7072 85.8076 43.0552 85.1536C42.4024 84.5016 42.0432 83.6357 42.0432 82.7153C42.0432 81.7945 42.4028 80.9286 43.0564 80.275L49.2729 74.058C49.9253 73.4057 50.7913 73.0465 51.7113 73.0465C52.6328 73.0465 53.5004 73.4065 54.1524 74.0568C54.8035 74.7084 55.1623 75.5744 55.1623 76.4955C55.1623 77.4151 54.8043 78.2791 54.152 78.9306L47.9326 85.1572ZM73.286 55.6347L72.9325 55.2815C72.9317 55.2807 72.9313 55.2799 72.9309 55.2795L59.9753 42.3276C58.8034 41.1557 56.9047 41.1561 55.7327 42.328C54.5616 43.5 54.5616 45.3991 55.7331 46.5707L68.6838 59.5182C68.685 59.5194 68.6862 59.521 68.6874 59.5222C69.339 60.1742 69.6974 61.0405 69.6966 61.9621C69.6958 62.8836 69.3362 63.75 68.6818 64.4036C68.0314 65.0552 67.1659 65.4136 66.2451 65.4136C65.3235 65.4136 64.4572 65.0544 63.8048 64.402L50.8545 51.4517C49.6829 50.2805 47.7834 50.2805 46.6123 51.4517C45.4407 52.6236 45.4407 54.5228 46.6123 55.6943L59.5626 68.6446C60.2133 69.2954 60.5717 70.1622 60.5709 71.0845C60.5705 71.5753 60.4657 72.0489 60.2721 72.4845C59.8122 71.5049 59.181 70.6018 58.3926 69.813C56.7887 68.2115 54.7123 67.2587 52.48 67.0799C52.4808 67.0291 52.4836 66.9783 52.4836 66.9275C52.4828 64.4024 51.4981 62.0297 49.7141 60.2498C47.9302 58.4642 45.5595 57.481 43.0392 57.481C42.9852 57.481 42.9316 57.4843 42.8776 57.4851C42.7028 55.3271 41.7976 53.2168 40.1509 51.5681C38.5426 49.9657 36.4614 49.0126 34.2259 48.8362C34.2643 46.3651 33.3499 43.884 31.4716 42.0076C29.6885 40.2213 27.3162 39.2373 24.7915 39.2373C22.2668 39.2373 19.8925 40.2209 18.1065 42.0068L11.8892 48.221C11.7768 48.3334 11.668 48.4482 11.562 48.565C7.9669 44.4215 5.99977 39.1877 5.99977 33.6499C5.99977 27.5586 8.37288 21.832 12.6835 17.5242C16.9906 13.2139 22.7171 10.84 28.8089 10.8396C28.8101 10.8396 28.8101 10.8396 28.8113 10.8396C34.3447 10.8396 39.5745 12.8043 43.7188 16.3974L32.1992 27.919C28.5161 31.6052 28.5149 37.6006 32.1984 41.2849C35.8835 44.9655 41.8776 44.9651 45.5623 41.2829L57.1287 29.7109L78.1755 50.7609C78.8242 51.4073 79.1826 52.2701 79.1838 53.1912C79.1842 53.638 79.099 54.0716 78.9398 54.4744C78.9254 54.5076 78.911 54.5404 78.8978 54.574C78.7278 54.9671 78.4863 55.3287 78.1767 55.6383C76.8251 56.9823 74.6316 56.9811 73.286 55.6347ZM84.1588 48.9102C83.7125 48.035 83.1285 47.2258 82.4137 46.5143L59.251 23.3483C59.2506 23.3479 59.2498 23.3471 59.2494 23.3463C58.153 22.2508 56.4211 22.1808 55.2435 23.1347C55.2407 23.1371 55.2379 23.1387 55.2355 23.1411C55.1843 23.1827 55.1363 23.2295 55.0875 23.2747C55.0615 23.2991 55.0335 23.3215 55.0079 23.3471L55.0075 23.3475L55.0071 23.3479L41.3204 37.0406C39.9749 38.3842 37.785 38.3842 36.4402 37.0414C35.0963 35.6971 35.0979 33.5072 36.4438 32.1596L50.0993 18.5021C50.1109 18.4909 50.1237 18.4809 50.1349 18.4697C50.1457 18.4589 50.1549 18.4465 50.1657 18.4357L51.0813 17.5198C55.3919 13.2091 61.1197 10.8348 67.2095 10.8344C73.2984 10.834 79.0246 13.2071 83.3325 17.515C91.9417 26.1306 92.2169 39.9689 84.1588 48.9102Z" fill="#6C9EC2"/>
</svg>
