<svg width="61" height="61" viewBox="0 0 61 61" fill="none" xmlns="http://www.w3.org/2000/svg">
<path d="M54.9772 41.8124H19.5031L21.2843 38.1846L50.8788 38.131C51.8796 38.131 52.7374 37.4161 52.9161 36.4272L57.0145 13.4867C57.1218 12.8851 56.9609 12.2655 56.5678 11.7949C56.3735 11.5633 56.1311 11.3767 55.8575 11.2482C55.5838 11.1196 55.2855 11.0521 54.9832 11.0503L17.3348 10.9252L17.0131 9.41211C16.8105 8.44707 15.9408 7.74414 14.952 7.74414H5.74834C5.19063 7.74414 4.65577 7.96569 4.26141 8.36005C3.86706 8.7544 3.64551 9.28927 3.64551 9.84697C3.64551 10.4047 3.86706 10.9395 4.26141 11.3339C4.65577 11.7283 5.19063 11.9498 5.74834 11.9498H13.2482L14.6541 18.6336L18.1151 35.3907L13.6593 42.6643C13.4279 42.9766 13.2885 43.3474 13.2569 43.7348C13.2253 44.1222 13.3028 44.5108 13.4806 44.8564C13.838 45.5653 14.5588 46.0121 15.357 46.0121H19.098C18.3005 47.0714 17.8697 48.3616 17.8709 49.6876C17.8709 53.0593 20.6111 55.7995 23.9828 55.7995C27.3545 55.7995 30.0947 53.0593 30.0947 49.6876C30.0947 48.3592 29.6539 47.0665 28.8676 46.0121H38.4644C37.6668 47.0714 37.236 48.3616 37.2372 49.6876C37.2372 53.0593 39.9774 55.7995 43.3491 55.7995C46.7208 55.7995 49.461 53.0593 49.461 49.6876C49.461 48.3592 49.0202 47.0665 48.2339 46.0121H54.9832C56.1389 46.0121 57.086 45.0709 57.086 43.9093C57.0826 43.3522 56.8589 42.819 56.4638 42.4262C56.0688 42.0333 55.5344 41.8127 54.9772 41.8124ZM18.2105 15.0713L52.511 15.1845L49.1513 33.9968L22.2076 34.0444L18.2105 15.0713ZM23.9828 51.57C22.9463 51.57 22.1004 50.7241 22.1004 49.6876C22.1004 48.6511 22.9463 47.8052 23.9828 47.8052C25.0193 47.8052 25.8652 48.6511 25.8652 49.6876C25.8652 50.1868 25.6669 50.6656 25.3139 51.0187C24.9609 51.3717 24.4821 51.57 23.9828 51.57ZM43.3491 51.57C42.3126 51.57 41.4667 50.7241 41.4667 49.6876C41.4667 48.6511 42.3126 47.8052 43.3491 47.8052C44.3856 47.8052 45.2315 48.6511 45.2315 49.6876C45.2315 50.1868 45.0332 50.6656 44.6802 51.0187C44.3272 51.3717 43.8484 51.57 43.3491 51.57Z" fill="#437346"/>
</svg>
