<svg width="258" height="258" viewBox="0 0 258 258" fill="none" xmlns="http://www.w3.org/2000/svg">
<path d="M195.393 68.1321C189.673 61.862 182.987 56.2868 175.384 51.6514C155.738 39.6705 133.327 35.9708 112.247 39.5546C110.38 39.8721 108.525 40.25 106.682 40.6808C104.201 41.2608 101.743 41.9401 99.3172 42.7237C87.3348 46.5911 76.1108 52.9152 66.4781 61.4891C59.8689 67.3717 54.007 74.3095 49.1674 82.2455C47.3927 85.1561 45.8059 88.1286 44.3914 91.147C24.7915 132.966 39.439 183.874 79.7621 208.462C80.331 208.809 80.9055 209.135 81.4794 209.468C94.6586 217.123 109.004 221.126 123.32 221.765C124.688 221.826 126.056 221.868 127.423 221.868C135.616 221.868 143.758 220.763 151.625 218.628C156.967 217.179 162.18 215.255 167.194 212.865C167.531 212.704 167.867 212.538 168.202 212.373C183.321 204.941 196.577 193.285 205.979 177.867C211.447 168.9 215.185 159.357 217.298 149.628C223.582 120.698 215.454 90.1221 195.393 68.1321ZM90.967 168.399L95.8125 196.717C93.5414 195.629 91.3121 194.424 89.1332 193.095C56.4292 173.153 44.7311 131.676 61.1151 97.8898L82.6434 110.211C89.7107 114.255 93.2592 122.595 91.2718 130.493C90.7488 132.572 91.3157 134.744 92.7896 136.303L93.4608 137.013C99.9572 143.882 100.081 154.759 93.741 161.774L92.4867 163.163C91.1962 164.592 90.6419 166.501 90.967 168.399ZM85.3419 86.7595C84.4363 87.269 83.422 87.5305 82.3995 87.5305C81.9092 87.5305 81.4179 87.4705 80.9357 87.3491L69.4995 84.4713C81.9148 68.6295 99.9088 59.0265 118.944 56.7655L116.324 67.1767C115.922 68.7726 114.883 70.1341 113.448 70.9409L85.3419 86.7595ZM144.967 201.813C135.853 204.022 126.59 204.477 117.57 203.247L116.196 194.859C115.755 192.164 117.188 189.51 119.685 188.404L125.467 185.842C135.059 181.59 146.265 184.826 152.112 193.537L155.199 198.137L155.779 198.305C152.3 199.734 148.69 200.91 144.967 201.813ZM197.816 152.816L193.99 149.153C191.436 146.709 188.089 145.425 184.549 145.538C181.016 145.651 177.753 147.146 175.36 149.748C171.634 153.801 166.593 156.548 161.167 157.482L146.071 160.079C145.076 160.25 144.078 160.335 143.087 160.335C138.978 160.335 134.979 158.888 131.788 156.185C127.827 152.83 125.571 147.929 125.598 142.738L125.668 129.149C125.684 126.313 124.753 123.504 123.049 121.238L115.211 110.814C113.724 108.837 113.603 106.15 114.907 104.048L127.29 84.0651C128.34 82.37 130.165 81.3078 132.157 81.2301L160.843 80.117L170.265 69.8202C196.893 88.6668 207.601 122.616 197.816 152.816Z" fill="#97BF95"/>
<path d="M221.933 34.765L219.655 37.2261C195.354 13.2205 163.166 0 129 0C97.6782 0 67.4756 11.3646 43.9562 31.9995C16.0217 56.5106 0 91.8656 0 129C0 133.971 4.02974 138 8.99976 138C13.9703 138 17.9995 133.97 17.9995 129C17.9995 97.0468 31.7869 66.6235 55.8273 45.5304C76.0621 27.7768 102.049 18 129 18C158.438 18 186.17 29.4049 207.089 50.1125C207.201 50.2233 207.321 50.3206 207.437 50.4244L204.766 53.3102C201.393 56.9545 204.204 62.8492 209.159 62.5206L225.734 61.4236C228.549 61.2377 230.765 58.9485 230.861 56.1296L231.452 38.6808C231.624 33.5974 225.388 31.032 221.933 34.765Z" fill="#6C9EC2"/>
<path d="M249 120C244.03 120 240.001 124.03 240.001 129C240.001 156.233 230.043 182.423 211.963 202.747C190.9 226.422 160.662 240 129 240C102.051 240 76.0657 230.224 55.8319 212.473C55.5033 212.185 55.1551 211.935 54.7994 211.703L57.077 209.242C57.6777 208.593 58.0788 207.871 58.3106 207.128C59.3774 203.694 56.7566 199.761 52.6845 200.031L43.723 200.623L36.109 201.127C33.2942 201.313 31.078 203.602 30.9828 206.421L30.3917 223.87C30.2193 228.954 36.4552 231.52 39.9105 227.787L42.7555 224.713C43.1088 225.172 43.5099 225.606 43.9624 226.003C67.4797 246.637 97.6808 258 129 258C165.796 258 200.937 242.222 225.41 214.711C246.426 191.087 258 160.649 258 129C258 124.029 253.97 120 249 120Z" fill="#6C9EC2"/>
</svg>
