<svg width="76" height="76" viewBox="0 0 76 76" fill="none" xmlns="http://www.w3.org/2000/svg">
<path d="M55.7015 3.94983C48.16 3.94983 41.4968 8.07943 38 14.3019C34.5032 8.07943 27.84 3.94983 20.2985 3.94983C9.10583 3.94983 0 13.0557 0 24.2483C0 33.21 6.22169 43.9443 18.4923 56.1524C27.4144 65.0292 36.1936 71.3259 36.563 71.5897C36.9928 71.8966 37.4965 72.0501 38 72.0501C38.5035 72.0501 39.0072 71.8966 39.437 71.5897C39.8064 71.3259 48.5856 65.0294 57.5077 56.1524C69.7783 43.9441 76 33.21 76 24.2483C76 13.0557 66.8942 3.94983 55.7015 3.94983Z" fill="#97BF95"/>
</svg>
