<svg width="76" height="76" viewBox="0 0 76 76" fill="none" xmlns="http://www.w3.org/2000/svg">
<g clip-path="url(#clip0_876_1101)">
<g clip-path="url(#clip1_876_1101)">
<path d="M62.9884 31.6268L48.9355 45.6798C47.7362 46.9247 47.9105 46.665 33.7849 53.0156C28.17 55.539 22.4927 49.7499 24.9816 44.2126C31.3125 30.1304 31.0718 30.2719 32.3 29.0794L46.3706 15.0088C47.5691 13.8104 46.7202 11.7611 45.0254 11.7611H2.85355C1.2777 11.7611 0 13.0388 0 14.6148V75.1436C0 76.7196 1.2777 77.9972 2.85355 77.9972H63.3823C64.9583 77.9972 66.2359 76.7195 66.2359 75.1436V32.972C66.236 31.2771 64.1869 30.4282 62.9884 31.6268Z" fill="#97BF95"/>
<path d="M75.6711 2.32623C72.5731 -0.771829 67.532 -0.771829 64.434 2.32623L34.9663 31.7937C34.7153 32.0337 34.5332 32.2463 34.3283 32.7017C33.7537 33.8365 32.4997 36.7688 28.452 45.7723C27.48 47.9348 29.4046 50.1589 31.5537 49.7571C32.1096 49.6532 44.6965 43.9654 44.9791 43.8286C45.7201 43.503 45.9823 43.2664 46.2149 43.0195C46.2151 43.0193 75.671 13.5634 75.6711 13.5632C78.7652 10.4694 78.7873 5.44196 75.6711 2.32623Z" fill="#97BF95"/>
</g>
</g>
<defs>
<clipPath id="clip0_876_1101">
<rect width="76" height="76" fill="white"/>
</clipPath>
<clipPath id="clip1_876_1101">
<rect width="78" height="78" fill="white"/>
</clipPath>
</defs>
</svg>
