<svg width="76" height="76" viewBox="0 0 76 76" fill="none" xmlns="http://www.w3.org/2000/svg">
<g clip-path="url(#clip0_876_1084)">
<path d="M75.8522 27.476C75.4848 26.3044 74.4715 25.4525 73.2522 25.291L51.1578 22.3459L40.8343 1.67975C39.7639 -0.467306 36.2362 -0.467306 35.1658 1.67975L24.8421 22.3459L2.74767 25.291C1.52852 25.4525 0.51511 26.3044 0.147718 27.476C-0.222791 28.6446 0.1161 29.9271 1.01862 30.7567L16.96 45.441L12.7072 72.2697C12.5046 73.5268 13.0808 74.7872 14.1671 75.4586C15.2565 76.1268 16.6403 76.0825 17.6727 75.3382L38.0001 60.8219L58.3275 75.3382C58.8754 75.7341 59.5214 75.9304 60.1674 75.9304C60.7438 75.9304 61.3201 75.772 61.8331 75.4585C62.9192 74.7871 63.4956 73.5268 63.293 72.2695L59.04 45.4408L74.9814 30.7566C75.8838 29.9271 76.2227 28.6446 75.8522 27.476Z" fill="#97BF95"/>
</g>
<defs>
<clipPath id="clip0_876_1084">
<rect width="76" height="76" fill="white"/>
</clipPath>
</defs>
</svg>
