<svg width="98" height="99" viewBox="0 0 98 99" fill="none" xmlns="http://www.w3.org/2000/svg">
<g clip-path="url(#clip0_862_1133)">
<path d="M76.5884 52.5587C76.5884 24.4604 52.1234 2.22793 51.0818 1.29572C49.8975 0.234969 48.1046 0.234552 46.9195 1.29572C45.8779 2.22835 21.4111 24.4604 21.4111 52.5587C21.4111 59.3441 24.3425 66.2698 29.4537 71.5606C34.0299 76.2978 39.7738 79.2064 45.8808 79.9501V95.3797C45.8808 97.1027 47.2772 98.4995 49.0006 98.4995C50.724 98.4995 52.1205 97.1027 52.1205 95.3797V79.9501C58.2271 79.2064 63.9701 76.2974 68.5459 71.5606C73.657 66.2698 76.5884 59.3437 76.5884 52.5587ZM33.0723 30.5267L45.8808 43.3364V56.3728L29.4812 39.9711C30.4171 36.6661 31.6559 33.5022 33.0723 30.5267ZM52.1205 56.3769V43.3393L64.9289 30.5296C66.3458 33.5067 67.5845 36.6719 68.5205 39.9786L52.1205 56.3769ZM61.8681 24.7795C61.8186 24.8236 61.7675 24.866 61.7201 24.9138L52.1205 34.5147V11.3728C54.9845 14.6458 58.6064 19.2478 61.8681 24.7795ZM45.8808 11.3724V34.5113L36.2841 24.9138C36.235 24.8652 36.1838 24.8219 36.1327 24.777C39.3956 19.2457 43.0167 14.6445 45.8808 11.3724ZM27.6508 52.5587C27.6508 50.7828 27.7727 49.0295 27.9857 47.3007L45.8812 65.1974V73.6538C35.2604 71.9463 27.6508 61.7576 27.6508 52.5587ZM52.1205 73.6534V65.2007L70.0143 47.3081C70.2273 49.0345 70.3492 50.7853 70.3492 52.5587C70.3487 61.7576 62.74 71.9463 52.1205 73.6534Z" fill="#6C9EC2"/>
</g>
<defs>
<clipPath id="clip0_862_1133">
<rect width="98" height="98" fill="white" transform="translate(0 0.5)"/>
</clipPath>
</defs>
</svg>
