<svg width="50" height="50" viewBox="0 0 25 25" fill="none" xmlns="http://www.w3.org/2000/svg">
<path d="M17.4804 18.9587C18.0108 18.9587 18.5195 19.1695 18.8946 19.5445C19.2697 19.9196 19.4804 20.4283 19.4804 20.9587C19.4804 21.4892 19.2697 21.9979 18.8946 22.373C18.5195 22.748 18.0108 22.9587 17.4804 22.9587C16.3704 22.9587 15.4804 22.0587 15.4804 20.9587C15.4804 19.8487 16.3704 18.9587 17.4804 18.9587ZM1.4804 2.95874H4.7504L5.6904 4.95874H20.4804C20.7456 4.95874 21 5.0641 21.1875 5.25163C21.375 5.43917 21.4804 5.69352 21.4804 5.95874C21.4804 6.12874 21.4304 6.29874 21.3604 6.45874L17.7804 12.9287C17.4404 13.5387 16.7804 13.9587 16.0304 13.9587H8.5804L7.6804 15.5887L7.6504 15.7087C7.6504 15.775 7.67674 15.8386 7.72362 15.8855C7.7705 15.9324 7.83409 15.9587 7.9004 15.9587H19.4804V17.9587H7.4804C6.3704 17.9587 5.4804 17.0587 5.4804 15.9587C5.4804 15.6087 5.5704 15.2787 5.7204 14.9987L7.0804 12.5487L3.4804 4.95874H1.4804V2.95874ZM7.4804 18.9587C8.01083 18.9587 8.51954 19.1695 8.89461 19.5445C9.26968 19.9196 9.4804 20.4283 9.4804 20.9587C9.4804 21.4892 9.26968 21.9979 8.89461 22.373C8.51954 22.748 8.01083 22.9587 7.4804 22.9587C6.3704 22.9587 5.4804 22.0587 5.4804 20.9587C5.4804 19.8487 6.3704 18.9587 7.4804 18.9587ZM16.4804 11.9587L19.2604 6.95874H6.6204L8.9804 11.9587H16.4804Z" fill="#437346"/>
<circle cx="19" cy="6" r="5" fill="#97BF95"/>
</svg>
