<svg width="614" height="226" viewBox="0 0 614 226" fill="none" xmlns="http://www.w3.org/2000/svg">
<path d="M524.598 221.18C523.614 221.18 522.672 221.042 521.772 220.766C520.872 220.478 520.158 220.112 519.63 219.668L520.44 217.85C520.944 218.246 521.568 218.576 522.312 218.84C523.056 219.104 523.818 219.236 524.598 219.236C525.258 219.236 525.792 219.164 526.2 219.02C526.608 218.876 526.908 218.684 527.1 218.444C527.292 218.192 527.388 217.91 527.388 217.598C527.388 217.214 527.25 216.908 526.974 216.68C526.698 216.44 526.338 216.254 525.894 216.122C525.462 215.978 524.976 215.846 524.436 215.726C523.908 215.606 523.374 215.468 522.834 215.312C522.306 215.144 521.82 214.934 521.376 214.682C520.944 214.418 520.59 214.07 520.314 213.638C520.038 213.206 519.9 212.654 519.9 211.982C519.9 211.298 520.08 210.674 520.44 210.11C520.812 209.534 521.37 209.078 522.114 208.742C522.87 208.394 523.824 208.22 524.976 208.22C525.732 208.22 526.482 208.316 527.226 208.508C527.97 208.7 528.618 208.976 529.17 209.336L528.432 211.154C527.868 210.818 527.286 210.572 526.686 210.416C526.086 210.248 525.51 210.164 524.958 210.164C524.31 210.164 523.782 210.242 523.374 210.398C522.978 210.554 522.684 210.758 522.492 211.01C522.312 211.262 522.222 211.55 522.222 211.874C522.222 212.258 522.354 212.57 522.618 212.81C522.894 213.038 523.248 213.218 523.68 213.35C524.124 213.482 524.616 213.614 525.156 213.746C525.696 213.866 526.23 214.004 526.758 214.16C527.298 214.316 527.784 214.52 528.216 214.772C528.66 215.024 529.014 215.366 529.278 215.798C529.554 216.23 529.692 216.776 529.692 217.436C529.692 218.108 529.506 218.732 529.134 219.308C528.774 219.872 528.216 220.328 527.46 220.676C526.704 221.012 525.75 221.18 524.598 221.18ZM536.314 221.126C535.246 221.126 534.31 220.916 533.506 220.496C532.714 220.064 532.096 219.476 531.652 218.732C531.22 217.988 531.004 217.142 531.004 216.194C531.004 215.234 531.214 214.388 531.634 213.656C532.066 212.912 532.654 212.33 533.398 211.91C534.154 211.49 535.012 211.28 535.972 211.28C536.908 211.28 537.742 211.484 538.474 211.892C539.206 212.3 539.782 212.876 540.202 213.62C540.622 214.364 540.832 215.24 540.832 216.248C540.832 216.344 540.826 216.452 540.814 216.572C540.814 216.692 540.808 216.806 540.796 216.914H532.786V215.42H539.608L538.726 215.888C538.738 215.336 538.624 214.85 538.384 214.43C538.144 214.01 537.814 213.68 537.394 213.44C536.986 213.2 536.512 213.08 535.972 213.08C535.42 213.08 534.934 213.2 534.514 213.44C534.106 213.68 533.782 214.016 533.542 214.448C533.314 214.868 533.2 215.366 533.2 215.942V216.302C533.2 216.878 533.332 217.388 533.596 217.832C533.86 218.276 534.232 218.618 534.712 218.858C535.192 219.098 535.744 219.218 536.368 219.218C536.908 219.218 537.394 219.134 537.826 218.966C538.258 218.798 538.642 218.534 538.978 218.174L540.184 219.56C539.752 220.064 539.206 220.454 538.546 220.73C537.898 220.994 537.154 221.126 536.314 221.126ZM546.612 221.126C545.556 221.126 544.74 220.856 544.164 220.316C543.588 219.764 543.3 218.954 543.3 217.886V209.264H545.55V217.832C545.55 218.288 545.664 218.642 545.892 218.894C546.132 219.146 546.462 219.272 546.882 219.272C547.386 219.272 547.806 219.14 548.142 218.876L548.772 220.478C548.508 220.694 548.184 220.856 547.8 220.964C547.416 221.072 547.02 221.126 546.612 221.126ZM541.716 213.26V211.46H548.124V213.26H541.716ZM548.606 222.8L554.546 205.844H556.562L550.622 222.8H548.606ZM556.456 221V219.434L561.46 214.682C561.88 214.286 562.192 213.938 562.396 213.638C562.6 213.338 562.732 213.062 562.792 212.81C562.864 212.546 562.9 212.3 562.9 212.072C562.9 211.496 562.702 211.052 562.306 210.74C561.91 210.416 561.328 210.254 560.56 210.254C559.948 210.254 559.39 210.362 558.886 210.578C558.394 210.794 557.968 211.124 557.608 211.568L555.97 210.308C556.462 209.648 557.122 209.138 557.95 208.778C558.79 208.406 559.726 208.22 560.758 208.22C561.67 208.22 562.462 208.37 563.134 208.67C563.818 208.958 564.34 209.372 564.7 209.912C565.072 210.452 565.258 211.094 565.258 211.838C565.258 212.246 565.204 212.654 565.096 213.062C564.988 213.458 564.784 213.878 564.484 214.322C564.184 214.766 563.746 215.264 563.17 215.816L558.868 219.902L558.382 219.02H565.744V221H556.456ZM572.351 221.18C571.355 221.18 570.455 220.928 569.651 220.424C568.859 219.92 568.235 219.188 567.779 218.228C567.323 217.256 567.095 216.08 567.095 214.7C567.095 213.32 567.323 212.15 567.779 211.19C568.235 210.218 568.859 209.48 569.651 208.976C570.455 208.472 571.355 208.22 572.351 208.22C573.359 208.22 574.259 208.472 575.051 208.976C575.843 209.48 576.467 210.218 576.923 211.19C577.391 212.15 577.625 213.32 577.625 214.7C577.625 216.08 577.391 217.256 576.923 218.228C576.467 219.188 575.843 219.92 575.051 220.424C574.259 220.928 573.359 221.18 572.351 221.18ZM572.351 219.146C572.939 219.146 573.449 218.99 573.881 218.678C574.313 218.354 574.649 217.862 574.889 217.202C575.141 216.542 575.267 215.708 575.267 214.7C575.267 213.68 575.141 212.846 574.889 212.198C574.649 211.538 574.313 211.052 573.881 210.74C573.449 210.416 572.939 210.254 572.351 210.254C571.787 210.254 571.283 210.416 570.839 210.74C570.407 211.052 570.065 211.538 569.813 212.198C569.573 212.846 569.453 213.68 569.453 214.7C569.453 215.708 569.573 216.542 569.813 217.202C570.065 217.862 570.407 218.354 570.839 218.678C571.283 218.99 571.787 219.146 572.351 219.146ZM579.026 221V219.434L584.03 214.682C584.45 214.286 584.762 213.938 584.966 213.638C585.17 213.338 585.302 213.062 585.362 212.81C585.434 212.546 585.47 212.3 585.47 212.072C585.47 211.496 585.272 211.052 584.876 210.74C584.48 210.416 583.898 210.254 583.13 210.254C582.518 210.254 581.96 210.362 581.456 210.578C580.964 210.794 580.538 211.124 580.178 211.568L578.54 210.308C579.032 209.648 579.692 209.138 580.52 208.778C581.36 208.406 582.296 208.22 583.328 208.22C584.24 208.22 585.032 208.37 585.704 208.67C586.388 208.958 586.91 209.372 587.27 209.912C587.642 210.452 587.828 211.094 587.828 211.838C587.828 212.246 587.774 212.654 587.666 213.062C587.558 213.458 587.354 213.878 587.054 214.322C586.754 214.766 586.316 215.264 585.74 215.816L581.438 219.902L580.952 219.02H588.314V221H579.026ZM589.503 221V219.434L594.507 214.682C594.927 214.286 595.239 213.938 595.443 213.638C595.647 213.338 595.779 213.062 595.839 212.81C595.911 212.546 595.947 212.3 595.947 212.072C595.947 211.496 595.749 211.052 595.353 210.74C594.957 210.416 594.375 210.254 593.607 210.254C592.995 210.254 592.437 210.362 591.933 210.578C591.441 210.794 591.015 211.124 590.655 211.568L589.017 210.308C589.509 209.648 590.169 209.138 590.997 208.778C591.837 208.406 592.773 208.22 593.805 208.22C594.717 208.22 595.509 208.37 596.181 208.67C596.865 208.958 597.387 209.372 597.747 209.912C598.119 210.452 598.305 211.094 598.305 211.838C598.305 212.246 598.251 212.654 598.143 213.062C598.035 213.458 597.831 213.878 597.531 214.322C597.231 214.766 596.793 215.264 596.217 215.816L591.915 219.902L591.429 219.02H598.791V221H589.503Z" fill="#437346"/>
<path d="M388.91 221L394.58 208.4H396.884L402.572 221H400.124L395.246 209.642H396.182L391.322 221H388.91ZM391.52 218.084L392.15 216.248H398.954L399.584 218.084H391.52ZM408.227 224.618C407.339 224.618 406.469 224.498 405.617 224.258C404.777 224.03 404.087 223.694 403.547 223.25L404.555 221.558C404.975 221.906 405.503 222.182 406.139 222.386C406.787 222.602 407.441 222.71 408.101 222.71C409.157 222.71 409.931 222.464 410.423 221.972C410.915 221.492 411.161 220.766 411.161 219.794V218.084L411.341 215.906L411.269 213.728V211.388H413.411V219.542C413.411 221.282 412.967 222.56 412.079 223.376C411.191 224.204 409.907 224.618 408.227 224.618ZM407.939 220.568C407.027 220.568 406.199 220.376 405.455 219.992C404.723 219.596 404.141 219.05 403.709 218.354C403.289 217.658 403.079 216.842 403.079 215.906C403.079 214.982 403.289 214.172 403.709 213.476C404.141 212.78 404.723 212.24 405.455 211.856C406.199 211.472 407.027 211.28 407.939 211.28C408.755 211.28 409.487 211.442 410.135 211.766C410.783 212.09 411.299 212.594 411.683 213.278C412.079 213.962 412.277 214.838 412.277 215.906C412.277 216.974 412.079 217.856 411.683 218.552C411.299 219.236 410.783 219.746 410.135 220.082C409.487 220.406 408.755 220.568 407.939 220.568ZM408.281 218.66C408.845 218.66 409.349 218.546 409.793 218.318C410.237 218.078 410.579 217.754 410.819 217.346C411.071 216.926 411.197 216.446 411.197 215.906C411.197 215.366 411.071 214.892 410.819 214.484C410.579 214.064 410.237 213.746 409.793 213.53C409.349 213.302 408.845 213.188 408.281 213.188C407.717 213.188 407.207 213.302 406.751 213.53C406.307 213.746 405.959 214.064 405.707 214.484C405.467 214.892 405.347 215.366 405.347 215.906C405.347 216.446 405.467 216.926 405.707 217.346C405.959 217.754 406.307 218.078 406.751 218.318C407.207 218.546 407.717 218.66 408.281 218.66ZM420.689 221.126C419.705 221.126 418.829 220.916 418.061 220.496C417.293 220.064 416.687 219.476 416.243 218.732C415.799 217.988 415.577 217.142 415.577 216.194C415.577 215.234 415.799 214.388 416.243 213.656C416.687 212.912 417.293 212.33 418.061 211.91C418.829 211.49 419.705 211.28 420.689 211.28C421.685 211.28 422.567 211.49 423.335 211.91C424.115 212.33 424.721 212.906 425.153 213.638C425.597 214.37 425.819 215.222 425.819 216.194C425.819 217.142 425.597 217.988 425.153 218.732C424.721 219.476 424.115 220.064 423.335 220.496C422.567 220.916 421.685 221.126 420.689 221.126ZM420.689 219.2C421.241 219.2 421.733 219.08 422.165 218.84C422.597 218.6 422.933 218.252 423.173 217.796C423.425 217.34 423.551 216.806 423.551 216.194C423.551 215.57 423.425 215.036 423.173 214.592C422.933 214.136 422.597 213.788 422.165 213.548C421.733 213.308 421.247 213.188 420.707 213.188C420.155 213.188 419.663 213.308 419.231 213.548C418.811 213.788 418.475 214.136 418.223 214.592C417.971 215.036 417.845 215.57 417.845 216.194C417.845 216.806 417.971 217.34 418.223 217.796C418.475 218.252 418.811 218.6 419.231 218.84C419.663 219.08 420.149 219.2 420.689 219.2ZM425.954 222.8L431.894 205.844H433.91L427.97 222.8H425.954ZM433.804 221V219.434L438.808 214.682C439.228 214.286 439.54 213.938 439.744 213.638C439.948 213.338 440.08 213.062 440.14 212.81C440.212 212.546 440.248 212.3 440.248 212.072C440.248 211.496 440.05 211.052 439.654 210.74C439.258 210.416 438.676 210.254 437.908 210.254C437.296 210.254 436.738 210.362 436.234 210.578C435.742 210.794 435.316 211.124 434.956 211.568L433.318 210.308C433.81 209.648 434.47 209.138 435.298 208.778C436.138 208.406 437.074 208.22 438.106 208.22C439.018 208.22 439.81 208.37 440.482 208.67C441.166 208.958 441.688 209.372 442.048 209.912C442.42 210.452 442.606 211.094 442.606 211.838C442.606 212.246 442.552 212.654 442.444 213.062C442.336 213.458 442.132 213.878 441.832 214.322C441.532 214.766 441.094 215.264 440.518 215.816L436.216 219.902L435.73 219.02H443.092V221H433.804ZM449.698 221.18C448.702 221.18 447.802 220.928 446.998 220.424C446.206 219.92 445.582 219.188 445.126 218.228C444.67 217.256 444.442 216.08 444.442 214.7C444.442 213.32 444.67 212.15 445.126 211.19C445.582 210.218 446.206 209.48 446.998 208.976C447.802 208.472 448.702 208.22 449.698 208.22C450.706 208.22 451.606 208.472 452.398 208.976C453.19 209.48 453.814 210.218 454.27 211.19C454.738 212.15 454.972 213.32 454.972 214.7C454.972 216.08 454.738 217.256 454.27 218.228C453.814 219.188 453.19 219.92 452.398 220.424C451.606 220.928 450.706 221.18 449.698 221.18ZM449.698 219.146C450.286 219.146 450.796 218.99 451.228 218.678C451.66 218.354 451.996 217.862 452.236 217.202C452.488 216.542 452.614 215.708 452.614 214.7C452.614 213.68 452.488 212.846 452.236 212.198C451.996 211.538 451.66 211.052 451.228 210.74C450.796 210.416 450.286 210.254 449.698 210.254C449.134 210.254 448.63 210.416 448.186 210.74C447.754 211.052 447.412 211.538 447.16 212.198C446.92 212.846 446.8 213.68 446.8 214.7C446.8 215.708 446.92 216.542 447.16 217.202C447.412 217.862 447.754 218.354 448.186 218.678C448.63 218.99 449.134 219.146 449.698 219.146ZM456.374 221V219.434L461.378 214.682C461.798 214.286 462.11 213.938 462.314 213.638C462.518 213.338 462.65 213.062 462.71 212.81C462.782 212.546 462.818 212.3 462.818 212.072C462.818 211.496 462.62 211.052 462.224 210.74C461.828 210.416 461.246 210.254 460.478 210.254C459.866 210.254 459.308 210.362 458.804 210.578C458.312 210.794 457.886 211.124 457.526 211.568L455.888 210.308C456.38 209.648 457.04 209.138 457.868 208.778C458.708 208.406 459.644 208.22 460.676 208.22C461.588 208.22 462.38 208.37 463.052 208.67C463.736 208.958 464.258 209.372 464.618 209.912C464.99 210.452 465.176 211.094 465.176 211.838C465.176 212.246 465.122 212.654 465.014 213.062C464.906 213.458 464.702 213.878 464.402 214.322C464.102 214.766 463.664 215.264 463.088 215.816L458.786 219.902L458.3 219.02H465.662V221H456.374ZM466.851 221V219.434L471.855 214.682C472.275 214.286 472.587 213.938 472.791 213.638C472.995 213.338 473.127 213.062 473.187 212.81C473.259 212.546 473.295 212.3 473.295 212.072C473.295 211.496 473.097 211.052 472.701 210.74C472.305 210.416 471.723 210.254 470.955 210.254C470.343 210.254 469.785 210.362 469.281 210.578C468.789 210.794 468.363 211.124 468.003 211.568L466.365 210.308C466.857 209.648 467.517 209.138 468.345 208.778C469.185 208.406 470.121 208.22 471.153 208.22C472.065 208.22 472.857 208.37 473.529 208.67C474.213 208.958 474.735 209.372 475.095 209.912C475.467 210.452 475.653 211.094 475.653 211.838C475.653 212.246 475.599 212.654 475.491 213.062C475.383 213.458 475.179 213.878 474.879 214.322C474.579 214.766 474.141 215.264 473.565 215.816L469.263 219.902L468.777 219.02H476.139V221H466.851Z" fill="#437346"/>
<path d="M271.654 221.18C270.85 221.18 270.106 221.024 269.422 220.712C268.75 220.4 268.198 219.95 267.766 219.362L269.098 217.76C269.446 218.24 269.824 218.6 270.232 218.84C270.652 219.08 271.108 219.2 271.6 219.2C272.908 219.2 273.562 218.426 273.562 216.878V210.362H269.08V208.4H275.902V216.752C275.902 218.24 275.536 219.35 274.804 220.082C274.084 220.814 273.034 221.18 271.654 221.18ZM283.036 221.126C282.22 221.126 281.5 220.976 280.876 220.676C280.252 220.364 279.766 219.896 279.418 219.272C279.07 218.636 278.896 217.838 278.896 216.878V211.388H281.146V216.572C281.146 217.436 281.338 218.084 281.722 218.516C282.118 218.936 282.676 219.146 283.396 219.146C283.924 219.146 284.38 219.038 284.764 218.822C285.16 218.606 285.466 218.282 285.682 217.85C285.91 217.418 286.024 216.884 286.024 216.248V211.388H288.274V221H286.132V218.408L286.51 219.2C286.186 219.824 285.712 220.304 285.088 220.64C284.464 220.964 283.78 221.126 283.036 221.126ZM291.22 221V207.644H293.47V221H291.22ZM294.407 222.8L300.347 205.844H302.363L296.423 222.8H294.407ZM302.257 221V219.434L307.261 214.682C307.681 214.286 307.993 213.938 308.197 213.638C308.401 213.338 308.533 213.062 308.593 212.81C308.665 212.546 308.701 212.3 308.701 212.072C308.701 211.496 308.503 211.052 308.107 210.74C307.711 210.416 307.129 210.254 306.361 210.254C305.749 210.254 305.191 210.362 304.687 210.578C304.195 210.794 303.769 211.124 303.409 211.568L301.771 210.308C302.263 209.648 302.923 209.138 303.751 208.778C304.591 208.406 305.527 208.22 306.559 208.22C307.471 208.22 308.263 208.37 308.935 208.67C309.619 208.958 310.141 209.372 310.501 209.912C310.873 210.452 311.059 211.094 311.059 211.838C311.059 212.246 311.005 212.654 310.897 213.062C310.789 213.458 310.585 213.878 310.285 214.322C309.985 214.766 309.547 215.264 308.971 215.816L304.669 219.902L304.183 219.02H311.545V221H302.257ZM318.152 221.18C317.156 221.18 316.256 220.928 315.452 220.424C314.66 219.92 314.036 219.188 313.58 218.228C313.124 217.256 312.896 216.08 312.896 214.7C312.896 213.32 313.124 212.15 313.58 211.19C314.036 210.218 314.66 209.48 315.452 208.976C316.256 208.472 317.156 208.22 318.152 208.22C319.16 208.22 320.06 208.472 320.852 208.976C321.644 209.48 322.268 210.218 322.724 211.19C323.192 212.15 323.426 213.32 323.426 214.7C323.426 216.08 323.192 217.256 322.724 218.228C322.268 219.188 321.644 219.92 320.852 220.424C320.06 220.928 319.16 221.18 318.152 221.18ZM318.152 219.146C318.74 219.146 319.25 218.99 319.682 218.678C320.114 218.354 320.45 217.862 320.69 217.202C320.942 216.542 321.068 215.708 321.068 214.7C321.068 213.68 320.942 212.846 320.69 212.198C320.45 211.538 320.114 211.052 319.682 210.74C319.25 210.416 318.74 210.254 318.152 210.254C317.588 210.254 317.084 210.416 316.64 210.74C316.208 211.052 315.866 211.538 315.614 212.198C315.374 212.846 315.254 213.68 315.254 214.7C315.254 215.708 315.374 216.542 315.614 217.202C315.866 217.862 316.208 218.354 316.64 218.678C317.084 218.99 317.588 219.146 318.152 219.146ZM324.827 221V219.434L329.831 214.682C330.251 214.286 330.563 213.938 330.767 213.638C330.971 213.338 331.103 213.062 331.163 212.81C331.235 212.546 331.271 212.3 331.271 212.072C331.271 211.496 331.073 211.052 330.677 210.74C330.281 210.416 329.699 210.254 328.931 210.254C328.319 210.254 327.761 210.362 327.257 210.578C326.765 210.794 326.339 211.124 325.979 211.568L324.341 210.308C324.833 209.648 325.493 209.138 326.321 208.778C327.161 208.406 328.097 208.22 329.129 208.22C330.041 208.22 330.833 208.37 331.505 208.67C332.189 208.958 332.711 209.372 333.071 209.912C333.443 210.452 333.629 211.094 333.629 211.838C333.629 212.246 333.575 212.654 333.467 213.062C333.359 213.458 333.155 213.878 332.855 214.322C332.555 214.766 332.117 215.264 331.541 215.816L327.239 219.902L326.753 219.02H334.115V221H324.827ZM335.304 221V219.434L340.308 214.682C340.728 214.286 341.04 213.938 341.244 213.638C341.448 213.338 341.58 213.062 341.64 212.81C341.712 212.546 341.748 212.3 341.748 212.072C341.748 211.496 341.55 211.052 341.154 210.74C340.758 210.416 340.176 210.254 339.408 210.254C338.796 210.254 338.238 210.362 337.734 210.578C337.242 210.794 336.816 211.124 336.456 211.568L334.818 210.308C335.31 209.648 335.97 209.138 336.798 208.778C337.638 208.406 338.574 208.22 339.606 208.22C340.518 208.22 341.31 208.37 341.982 208.67C342.666 208.958 343.188 209.372 343.548 209.912C343.92 210.452 344.106 211.094 344.106 211.838C344.106 212.246 344.052 212.654 343.944 213.062C343.836 213.458 343.632 213.878 343.332 214.322C343.032 214.766 342.594 215.264 342.018 215.816L337.716 219.902L337.23 219.02H344.592V221H335.304Z" fill="#437346"/>
<path d="M142.654 221.18C141.85 221.18 141.106 221.024 140.422 220.712C139.75 220.4 139.198 219.95 138.766 219.362L140.098 217.76C140.446 218.24 140.824 218.6 141.232 218.84C141.652 219.08 142.108 219.2 142.6 219.2C143.908 219.2 144.562 218.426 144.562 216.878V210.362H140.08V208.4H146.902V216.752C146.902 218.24 146.536 219.35 145.804 220.082C145.084 220.814 144.034 221.18 142.654 221.18ZM154.036 221.126C153.22 221.126 152.5 220.976 151.876 220.676C151.252 220.364 150.766 219.896 150.418 219.272C150.07 218.636 149.896 217.838 149.896 216.878V211.388H152.146V216.572C152.146 217.436 152.338 218.084 152.722 218.516C153.118 218.936 153.676 219.146 154.396 219.146C154.924 219.146 155.38 219.038 155.764 218.822C156.16 218.606 156.466 218.282 156.682 217.85C156.91 217.418 157.024 216.884 157.024 216.248V211.388H159.274V221H157.132V218.408L157.51 219.2C157.186 219.824 156.712 220.304 156.088 220.64C155.464 220.964 154.78 221.126 154.036 221.126ZM167.674 211.28C168.442 211.28 169.126 211.43 169.726 211.73C170.338 212.03 170.818 212.492 171.166 213.116C171.514 213.728 171.688 214.52 171.688 215.492V221H169.438V215.78C169.438 214.928 169.234 214.292 168.826 213.872C168.43 213.452 167.872 213.242 167.152 213.242C166.624 213.242 166.156 213.35 165.748 213.566C165.34 213.782 165.022 214.106 164.794 214.538C164.578 214.958 164.47 215.492 164.47 216.14V221H162.22V211.388H164.362V213.98L163.984 213.188C164.32 212.576 164.806 212.108 165.442 211.784C166.09 211.448 166.834 211.28 167.674 211.28ZM172.526 222.8L178.466 205.844H180.482L174.542 222.8H172.526ZM180.376 221V219.434L185.38 214.682C185.8 214.286 186.112 213.938 186.316 213.638C186.52 213.338 186.652 213.062 186.712 212.81C186.784 212.546 186.82 212.3 186.82 212.072C186.82 211.496 186.622 211.052 186.226 210.74C185.83 210.416 185.248 210.254 184.48 210.254C183.868 210.254 183.31 210.362 182.806 210.578C182.314 210.794 181.888 211.124 181.528 211.568L179.89 210.308C180.382 209.648 181.042 209.138 181.87 208.778C182.71 208.406 183.646 208.22 184.678 208.22C185.59 208.22 186.382 208.37 187.054 208.67C187.738 208.958 188.26 209.372 188.62 209.912C188.992 210.452 189.178 211.094 189.178 211.838C189.178 212.246 189.124 212.654 189.016 213.062C188.908 213.458 188.704 213.878 188.404 214.322C188.104 214.766 187.666 215.264 187.09 215.816L182.788 219.902L182.302 219.02H189.664V221H180.376ZM196.271 221.18C195.275 221.18 194.375 220.928 193.571 220.424C192.779 219.92 192.155 219.188 191.699 218.228C191.243 217.256 191.015 216.08 191.015 214.7C191.015 213.32 191.243 212.15 191.699 211.19C192.155 210.218 192.779 209.48 193.571 208.976C194.375 208.472 195.275 208.22 196.271 208.22C197.279 208.22 198.179 208.472 198.971 208.976C199.763 209.48 200.387 210.218 200.843 211.19C201.311 212.15 201.545 213.32 201.545 214.7C201.545 216.08 201.311 217.256 200.843 218.228C200.387 219.188 199.763 219.92 198.971 220.424C198.179 220.928 197.279 221.18 196.271 221.18ZM196.271 219.146C196.859 219.146 197.369 218.99 197.801 218.678C198.233 218.354 198.569 217.862 198.809 217.202C199.061 216.542 199.187 215.708 199.187 214.7C199.187 213.68 199.061 212.846 198.809 212.198C198.569 211.538 198.233 211.052 197.801 210.74C197.369 210.416 196.859 210.254 196.271 210.254C195.707 210.254 195.203 210.416 194.759 210.74C194.327 211.052 193.985 211.538 193.733 212.198C193.493 212.846 193.373 213.68 193.373 214.7C193.373 215.708 193.493 216.542 193.733 217.202C193.985 217.862 194.327 218.354 194.759 218.678C195.203 218.99 195.707 219.146 196.271 219.146ZM202.946 221V219.434L207.95 214.682C208.37 214.286 208.682 213.938 208.886 213.638C209.09 213.338 209.222 213.062 209.282 212.81C209.354 212.546 209.39 212.3 209.39 212.072C209.39 211.496 209.192 211.052 208.796 210.74C208.4 210.416 207.818 210.254 207.05 210.254C206.438 210.254 205.88 210.362 205.376 210.578C204.884 210.794 204.458 211.124 204.098 211.568L202.46 210.308C202.952 209.648 203.612 209.138 204.44 208.778C205.28 208.406 206.216 208.22 207.248 208.22C208.16 208.22 208.952 208.37 209.624 208.67C210.308 208.958 210.83 209.372 211.19 209.912C211.562 210.452 211.748 211.094 211.748 211.838C211.748 212.246 211.694 212.654 211.586 213.062C211.478 213.458 211.274 213.878 210.974 214.322C210.674 214.766 210.236 215.264 209.66 215.816L205.358 219.902L204.872 219.02H212.234V221H202.946ZM213.423 221V219.434L218.427 214.682C218.847 214.286 219.159 213.938 219.363 213.638C219.567 213.338 219.699 213.062 219.759 212.81C219.831 212.546 219.867 212.3 219.867 212.072C219.867 211.496 219.669 211.052 219.273 210.74C218.877 210.416 218.295 210.254 217.527 210.254C216.915 210.254 216.357 210.362 215.853 210.578C215.361 210.794 214.935 211.124 214.575 211.568L212.937 210.308C213.429 209.648 214.089 209.138 214.917 208.778C215.757 208.406 216.693 208.22 217.725 208.22C218.637 208.22 219.429 208.37 220.101 208.67C220.785 208.958 221.307 209.372 221.667 209.912C222.039 210.452 222.225 211.094 222.225 211.838C222.225 212.246 222.171 212.654 222.063 213.062C221.955 213.458 221.751 213.878 221.451 214.322C221.151 214.766 220.713 215.264 220.137 215.816L215.835 219.902L215.349 219.02H222.711V221H213.423Z" fill="#437346"/>
<path d="M14.692 221V208.4H16.618L22.126 217.598H21.118L26.536 208.4H28.462L28.48 221H26.266L26.248 211.874H26.716L22.108 219.56H21.064L16.384 211.874H16.924V221H14.692ZM37.5894 221V219.056L37.4634 218.642V215.24C37.4634 214.58 37.2654 214.07 36.8694 213.71C36.4734 213.338 35.8734 213.152 35.0694 213.152C34.5294 213.152 33.9954 213.236 33.4674 213.404C32.9514 213.572 32.5134 213.806 32.1534 214.106L31.2714 212.468C31.7874 212.072 32.3994 211.778 33.1074 211.586C33.8274 211.382 34.5714 211.28 35.3394 211.28C36.7314 211.28 37.8054 211.616 38.5614 212.288C39.3294 212.948 39.7134 213.974 39.7134 215.366V221H37.5894ZM34.5654 221.126C33.8454 221.126 33.2154 221.006 32.6754 220.766C32.1354 220.514 31.7154 220.172 31.4154 219.74C31.1274 219.296 30.9834 218.798 30.9834 218.246C30.9834 217.706 31.1094 217.22 31.3614 216.788C31.6254 216.356 32.0514 216.014 32.6394 215.762C33.2274 215.51 34.0074 215.384 34.9794 215.384H37.7694V216.878H35.1414C34.3734 216.878 33.8574 217.004 33.5934 217.256C33.3294 217.496 33.1974 217.796 33.1974 218.156C33.1974 218.564 33.3594 218.888 33.6834 219.128C34.0074 219.368 34.4574 219.488 35.0334 219.488C35.5854 219.488 36.0774 219.362 36.5094 219.11C36.9534 218.858 37.2714 218.486 37.4634 217.994L37.8414 219.344C37.6254 219.908 37.2354 220.346 36.6714 220.658C36.1194 220.97 35.4174 221.126 34.5654 221.126ZM42.601 221V211.388H44.851V221H42.601ZM43.735 209.804C43.315 209.804 42.967 209.672 42.691 209.408C42.427 209.144 42.295 208.826 42.295 208.454C42.295 208.07 42.427 207.752 42.691 207.5C42.967 207.236 43.315 207.104 43.735 207.104C44.155 207.104 44.497 207.23 44.761 207.482C45.037 207.722 45.175 208.028 45.175 208.4C45.175 208.796 45.043 209.132 44.779 209.408C44.515 209.672 44.167 209.804 43.735 209.804ZM45.7881 222.8L51.7281 205.844H53.7441L47.8041 222.8H45.7881ZM53.6378 221V219.434L58.6418 214.682C59.0618 214.286 59.3738 213.938 59.5778 213.638C59.7818 213.338 59.9138 213.062 59.9738 212.81C60.0458 212.546 60.0818 212.3 60.0818 212.072C60.0818 211.496 59.8838 211.052 59.4878 210.74C59.0918 210.416 58.5098 210.254 57.7418 210.254C57.1298 210.254 56.5718 210.362 56.0678 210.578C55.5758 210.794 55.1498 211.124 54.7898 211.568L53.1518 210.308C53.6438 209.648 54.3038 209.138 55.1318 208.778C55.9718 208.406 56.9078 208.22 57.9398 208.22C58.8518 208.22 59.6438 208.37 60.3158 208.67C60.9998 208.958 61.5218 209.372 61.8818 209.912C62.2538 210.452 62.4398 211.094 62.4398 211.838C62.4398 212.246 62.3858 212.654 62.2778 213.062C62.1698 213.458 61.9658 213.878 61.6658 214.322C61.3658 214.766 60.9278 215.264 60.3518 215.816L56.0498 219.902L55.5638 219.02H62.9258V221H53.6378ZM69.5324 221.18C68.5364 221.18 67.6364 220.928 66.8324 220.424C66.0404 219.92 65.4164 219.188 64.9604 218.228C64.5044 217.256 64.2764 216.08 64.2764 214.7C64.2764 213.32 64.5044 212.15 64.9604 211.19C65.4164 210.218 66.0404 209.48 66.8324 208.976C67.6364 208.472 68.5364 208.22 69.5324 208.22C70.5404 208.22 71.4404 208.472 72.2324 208.976C73.0244 209.48 73.6484 210.218 74.1044 211.19C74.5724 212.15 74.8064 213.32 74.8064 214.7C74.8064 216.08 74.5724 217.256 74.1044 218.228C73.6484 219.188 73.0244 219.92 72.2324 220.424C71.4404 220.928 70.5404 221.18 69.5324 221.18ZM69.5324 219.146C70.1204 219.146 70.6304 218.99 71.0624 218.678C71.4944 218.354 71.8304 217.862 72.0704 217.202C72.3224 216.542 72.4484 215.708 72.4484 214.7C72.4484 213.68 72.3224 212.846 72.0704 212.198C71.8304 211.538 71.4944 211.052 71.0624 210.74C70.6304 210.416 70.1204 210.254 69.5324 210.254C68.9684 210.254 68.4644 210.416 68.0204 210.74C67.5884 211.052 67.2464 211.538 66.9944 212.198C66.7544 212.846 66.6344 213.68 66.6344 214.7C66.6344 215.708 66.7544 216.542 66.9944 217.202C67.2464 217.862 67.5884 218.354 68.0204 218.678C68.4644 218.99 68.9684 219.146 69.5324 219.146ZM76.2081 221V219.434L81.2121 214.682C81.6321 214.286 81.9441 213.938 82.1481 213.638C82.3521 213.338 82.4841 213.062 82.5441 212.81C82.6161 212.546 82.6521 212.3 82.6521 212.072C82.6521 211.496 82.4541 211.052 82.0581 210.74C81.6621 210.416 81.0801 210.254 80.3121 210.254C79.7001 210.254 79.1421 210.362 78.6381 210.578C78.1461 210.794 77.7201 211.124 77.3601 211.568L75.7221 210.308C76.2141 209.648 76.8741 209.138 77.7021 208.778C78.5421 208.406 79.4781 208.22 80.5101 208.22C81.4221 208.22 82.2141 208.37 82.8861 208.67C83.5701 208.958 84.0921 209.372 84.4521 209.912C84.8241 210.452 85.0101 211.094 85.0101 211.838C85.0101 212.246 84.9561 212.654 84.8481 213.062C84.7401 213.458 84.5361 213.878 84.2361 214.322C83.9361 214.766 83.4981 215.264 82.9221 215.816L78.6201 219.902L78.1341 219.02H85.4961V221H76.2081ZM86.6847 221V219.434L91.6887 214.682C92.1087 214.286 92.4207 213.938 92.6247 213.638C92.8287 213.338 92.9607 213.062 93.0207 212.81C93.0927 212.546 93.1287 212.3 93.1287 212.072C93.1287 211.496 92.9307 211.052 92.5347 210.74C92.1387 210.416 91.5567 210.254 90.7887 210.254C90.1767 210.254 89.6187 210.362 89.1147 210.578C88.6227 210.794 88.1967 211.124 87.8367 211.568L86.1987 210.308C86.6907 209.648 87.3507 209.138 88.1787 208.778C89.0187 208.406 89.9547 208.22 90.9867 208.22C91.8987 208.22 92.6907 208.37 93.3627 208.67C94.0467 208.958 94.5687 209.372 94.9287 209.912C95.3007 210.452 95.4867 211.094 95.4867 211.838C95.4867 212.246 95.4327 212.654 95.3247 213.062C95.2167 213.458 95.0127 213.878 94.7127 214.322C94.4127 214.766 93.9747 215.264 93.3987 215.816L89.0967 219.902L88.6107 219.02H95.9727V221H86.6847Z" fill="#437346"/>
<rect y="115" width="110" height="74" rx="4" fill="#6C9EC2"/>
<rect x="126" y="78" width="110" height="111" rx="4" fill="#6C9EC2"/>
<rect x="252" y="25" width="110" height="164" rx="4" fill="#6C9EC2"/>
<rect x="378" y="60" width="110" height="129" rx="4" fill="#6C9EC2"/>
<rect x="504" width="110" height="189" rx="4" fill="#F2A950"/>
</svg>
