<svg width="97" height="98" viewBox="0 0 97 98" fill="none" xmlns="http://www.w3.org/2000/svg">
<g clip-path="url(#clip0_862_1109)">
<path d="M48.5016 22.4156C34.6647 22.4156 23.4072 33.6731 23.4072 47.51C23.4072 53.1728 25.2641 58.5235 28.7744 62.9809C29.4673 63.8632 30.1954 64.7077 30.9663 65.6018L31.0086 65.651C33.3669 68.3871 35.8053 71.2172 36.7159 74.5497C36.9218 75.3133 36.951 76.7775 36.9391 77.9055V79.8224C36.9391 81.5768 38.3614 82.999 40.1157 82.999H56.7493C58.5036 82.999 59.9259 81.5768 59.9259 79.8224V77.883C59.9153 76.4099 59.9916 75.3349 60.1453 74.7771C61.061 71.4667 63.7633 68.288 66.169 65.4587L66.2728 65.3367C66.967 64.5209 67.623 63.7505 68.2202 62.9911C71.7357 58.5311 73.5938 53.1779 73.5938 47.51C73.5934 33.6731 62.3372 22.4156 48.5016 22.4156ZM63.2279 59.0614C62.7048 59.7268 62.0881 60.4515 61.435 61.2185L61.3071 61.3689C58.4969 64.6743 55.3118 68.4205 54.0208 73.0872C53.8383 73.7496 53.6354 74.7407 53.5837 76.6458H43.2864C43.2424 74.6225 43.0361 73.5848 42.8476 72.886C41.5558 68.1575 38.3762 64.468 35.821 61.5027L35.7782 61.4528C35.0561 60.6154 34.3741 59.8242 33.768 59.0534C31.1463 55.7243 29.7604 51.7323 29.7604 47.51C29.7604 37.1763 38.1679 28.7689 48.5016 28.7689C58.834 28.7689 67.2402 37.1763 67.2402 47.51C67.2402 51.737 65.8535 55.7302 63.2279 59.0614Z" fill="#6C9EC2"/>
<path d="M56.7487 83.9008H40.1156C38.3612 83.9008 36.939 85.323 36.939 87.0774C36.939 88.8317 38.3612 90.254 40.1156 90.254H56.7491C58.5035 90.254 59.9257 88.8317 59.9257 87.0774C59.9257 85.323 58.503 83.9008 56.7487 83.9008Z" fill="#6C9EC2"/>
<path d="M52.5906 91.1467H44.2743C42.5199 91.1467 41.0977 92.569 41.0977 94.3233C41.0977 96.0777 42.5199 97.4999 44.2743 97.4999H52.5906C54.345 97.4999 55.7672 96.0777 55.7672 94.3233C55.7672 92.569 54.345 91.1467 52.5906 91.1467Z" fill="#6C9EC2"/>
<path d="M92.3338 44.3334H81.3753C79.621 44.3334 78.1987 45.7556 78.1987 47.51C78.1987 49.2643 79.621 50.6866 81.3753 50.6866H92.3338C94.0881 50.6866 95.5104 49.2643 95.5104 47.51C95.5104 45.7556 94.0881 44.3334 92.3338 44.3334Z" fill="#6C9EC2"/>
<path d="M18.8032 47.51C18.8032 45.7556 17.3809 44.3334 15.6266 44.3334H4.66684C2.91251 44.3334 1.49023 45.7556 1.49023 47.51C1.49023 49.2643 2.91251 50.6866 4.66684 50.6866H15.6266C17.3809 50.6866 18.8032 49.2643 18.8032 47.51Z" fill="#6C9EC2"/>
<path d="M48.5008 17.815C50.2552 17.815 51.6774 16.3928 51.6774 14.6384V3.67661C51.6774 1.92227 50.2552 0.5 48.5008 0.5C46.7465 0.5 45.3242 1.92227 45.3242 3.67661V14.6384C45.3242 16.3928 46.7465 17.815 48.5008 17.815Z" fill="#6C9EC2"/>
<path d="M73.9911 68.5086C72.7505 67.2681 70.7395 67.2676 69.4985 68.5082C68.2579 69.7488 68.2575 71.7598 69.4981 73.0008L77.2473 80.7521C77.8678 81.3726 78.6806 81.6827 79.4938 81.6827C80.3066 81.6827 81.1194 81.3726 81.7399 80.7526C82.9805 79.512 82.9809 77.501 81.7403 76.26L73.9911 68.5086Z" fill="#6C9EC2"/>
<path d="M23.0059 26.5093C23.6264 27.1298 24.4391 27.4402 25.2523 27.4402C26.0651 27.4402 26.8779 27.1302 27.498 26.5101C28.739 25.2695 28.739 23.2585 27.4988 22.018L19.7526 14.2687C18.512 13.0277 16.501 13.0277 15.2604 14.2679C14.0194 15.5085 14.0194 17.5195 15.2596 18.76L23.0059 26.5093Z" fill="#6C9EC2"/>
<path d="M23.0095 68.5086L15.2598 76.2599C14.0192 77.5005 14.0197 79.5119 15.2602 80.7521C15.8803 81.3722 16.6935 81.6822 17.5063 81.6822C18.3191 81.6822 19.1323 81.3722 19.7528 80.7517L27.5024 73.0003C28.743 71.7598 28.7426 69.7483 27.502 68.5082C26.2615 67.268 24.25 67.268 23.0095 68.5086Z" fill="#6C9EC2"/>
<path d="M71.7461 27.4397C72.5589 27.4397 73.3721 27.1297 73.9926 26.5092L81.7401 18.7604C82.9807 17.5198 82.9803 15.5084 81.7397 14.2683C80.4991 13.0277 78.4877 13.0277 77.2476 14.2687L69.5 22.0175C68.2595 23.2581 68.2599 25.2695 69.5005 26.5096C70.1201 27.1301 70.9329 27.4397 71.7461 27.4397Z" fill="#6C9EC2"/>
</g>
<defs>
<clipPath id="clip0_862_1109">
<rect width="97" height="97" fill="white" transform="translate(0 0.5)"/>
</clipPath>
</defs>
</svg>
