<svg width="84" height="84" viewBox="0 0 84 84" fill="none" xmlns="http://www.w3.org/2000/svg">
<g clip-path="url(#clip0_876_1110)">
<path d="M42.0599 0H41.94C27.4334 0 15.6317 11.7977 15.6317 26.2988C15.6317 35.8043 19.9607 48.3492 28.4982 63.5856C34.828 74.8815 41.2464 83.5328 41.3107 83.6188C41.4894 83.8588 41.771 84.0002 42.0694 84.0002C42.0778 84.0002 42.0865 84.0002 42.095 83.9998C42.4028 83.9913 42.687 83.8338 42.8578 83.5772C42.9211 83.4814 49.2938 73.8578 55.5805 62.0871C64.0661 46.2001 68.3686 34.1588 68.3686 26.2988C68.368 11.7975 56.5661 0 42.0599 0ZM54.2035 26.9415C54.2035 33.6708 48.729 39.145 41.9998 39.145C35.2707 39.145 29.7962 33.6706 29.7962 26.9415C29.7962 20.2124 35.2707 14.738 41.9998 14.738C48.729 14.738 54.2035 20.2124 54.2035 26.9415Z" fill="#97BF95"/>
</g>
<defs>
<clipPath id="clip0_876_1110">
<rect width="84" height="84" fill="white"/>
</clipPath>
</defs>
</svg>
