<svg width="147" height="127" viewBox="0 0 147 127" fill="none" xmlns="http://www.w3.org/2000/svg">
<path d="M7.512 71.288C6.168 71.288 4.88 71.112 3.648 70.76C2.416 70.392 1.424 69.92 0.672 69.344L1.992 66.416C2.712 66.928 3.56 67.352 4.536 67.688C5.528 68.008 6.528 68.168 7.536 68.168C8.304 68.168 8.92 68.096 9.384 67.952C9.864 67.792 10.216 67.576 10.44 67.304C10.664 67.032 10.776 66.72 10.776 66.368C10.776 65.92 10.6 65.568 10.248 65.312C9.896 65.04 9.432 64.824 8.856 64.664C8.28 64.488 7.64 64.328 6.936 64.184C6.248 64.024 5.552 63.832 4.848 63.608C4.16 63.384 3.528 63.096 2.952 62.744C2.376 62.392 1.904 61.928 1.536 61.352C1.184 60.776 1.008 60.04 1.008 59.144C1.008 58.184 1.264 57.312 1.776 56.528C2.304 55.728 3.088 55.096 4.128 54.632C5.184 54.152 6.504 53.912 8.088 53.912C9.144 53.912 10.184 54.04 11.208 54.296C12.232 54.536 13.136 54.904 13.92 55.4L12.72 58.352C11.936 57.904 11.152 57.576 10.368 57.368C9.584 57.144 8.816 57.032 8.064 57.032C7.312 57.032 6.696 57.12 6.216 57.296C5.736 57.472 5.392 57.704 5.184 57.992C4.976 58.264 4.872 58.584 4.872 58.952C4.872 59.384 5.048 59.736 5.4 60.008C5.752 60.264 6.216 60.472 6.792 60.632C7.368 60.792 8 60.952 8.688 61.112C9.392 61.272 10.088 61.456 10.776 61.664C11.48 61.872 12.12 62.152 12.696 62.504C13.272 62.856 13.736 63.32 14.088 63.896C14.456 64.472 14.64 65.2 14.64 66.08C14.64 67.024 14.376 67.888 13.848 68.672C13.32 69.456 12.528 70.088 11.472 70.568C10.432 71.048 9.112 71.288 7.512 71.288ZM24.9527 71V68.48L24.7127 67.928V63.416C24.7127 62.616 24.4647 61.992 23.9687 61.544C23.4887 61.096 22.7447 60.872 21.7367 60.872C21.0487 60.872 20.3687 60.984 19.6967 61.208C19.0407 61.416 18.4807 61.704 18.0167 62.072L16.6727 59.456C17.3767 58.96 18.2247 58.576 19.2167 58.304C20.2087 58.032 21.2167 57.896 22.2407 57.896C24.2087 57.896 25.7367 58.36 26.8247 59.288C27.9127 60.216 28.4567 61.664 28.4567 63.632V71H24.9527ZM21.0167 71.192C20.0087 71.192 19.1447 71.024 18.4247 70.688C17.7047 70.336 17.1527 69.864 16.7687 69.272C16.3847 68.68 16.1927 68.016 16.1927 67.28C16.1927 66.512 16.3767 65.84 16.7447 65.264C17.1287 64.688 17.7287 64.24 18.5447 63.92C19.3607 63.584 20.4247 63.416 21.7367 63.416H25.1687V65.6H22.1447C21.2647 65.6 20.6567 65.744 20.3207 66.032C20.0007 66.32 19.8407 66.68 19.8407 67.112C19.8407 67.592 20.0247 67.976 20.3927 68.264C20.7767 68.536 21.2967 68.672 21.9527 68.672C22.5767 68.672 23.1367 68.528 23.6327 68.24C24.1287 67.936 24.4887 67.496 24.7127 66.92L25.2887 68.648C25.0167 69.48 24.5207 70.112 23.8007 70.544C23.0807 70.976 22.1527 71.192 21.0167 71.192ZM31.8452 71V58.088H35.5892V71H31.8452ZM33.7172 56.288C33.0292 56.288 32.4692 56.088 32.0372 55.688C31.6052 55.288 31.3892 54.792 31.3892 54.2C31.3892 53.608 31.6052 53.112 32.0372 52.712C32.4692 52.312 33.0292 52.112 33.7172 52.112C34.4052 52.112 34.9652 52.304 35.3972 52.688C35.8292 53.056 36.0452 53.536 36.0452 54.128C36.0452 54.752 35.8292 55.272 35.3972 55.688C34.9812 56.088 34.4212 56.288 33.7172 56.288ZM46.6959 71.192C45.5599 71.192 44.5839 70.952 43.7679 70.472C42.9519 69.992 42.3279 69.264 41.8959 68.288C41.4639 67.296 41.2479 66.048 41.2479 64.544C41.2479 63.024 41.4719 61.776 41.9199 60.8C42.3839 59.824 43.0239 59.096 43.8399 58.616C44.6559 58.136 45.6079 57.896 46.6959 57.896C47.9119 57.896 48.9999 58.168 49.9599 58.712C50.9359 59.256 51.7039 60.024 52.2639 61.016C52.8399 62.008 53.1279 63.184 53.1279 64.544C53.1279 65.888 52.8399 67.056 52.2639 68.048C51.7039 69.04 50.9359 69.816 49.9599 70.376C48.9999 70.92 47.9119 71.192 46.6959 71.192ZM39.0639 71V53.192H42.8079V60.704L42.5679 64.52L42.6399 68.36V71H39.0639ZM46.0479 68.12C46.6719 68.12 47.2239 67.976 47.7039 67.688C48.1999 67.4 48.5919 66.992 48.8799 66.464C49.1839 65.92 49.3359 65.28 49.3359 64.544C49.3359 63.792 49.1839 63.152 48.8799 62.624C48.5919 62.096 48.1999 61.688 47.7039 61.4C47.2239 61.112 46.6719 60.968 46.0479 60.968C45.4239 60.968 44.8639 61.112 44.3679 61.4C43.8719 61.688 43.4799 62.096 43.1919 62.624C42.9039 63.152 42.7599 63.792 42.7599 64.544C42.7599 65.28 42.9039 65.92 43.1919 66.464C43.4799 66.992 43.8719 67.4 44.3679 67.688C44.8639 67.976 45.4239 68.12 46.0479 68.12ZM63.3433 71V68.48L63.1033 67.928V63.416C63.1033 62.616 62.8553 61.992 62.3593 61.544C61.8793 61.096 61.1353 60.872 60.1273 60.872C59.4393 60.872 58.7593 60.984 58.0873 61.208C57.4313 61.416 56.8713 61.704 56.4073 62.072L55.0633 59.456C55.7673 58.96 56.6153 58.576 57.6073 58.304C58.5993 58.032 59.6073 57.896 60.6313 57.896C62.5993 57.896 64.1273 58.36 65.2153 59.288C66.3033 60.216 66.8473 61.664 66.8473 63.632V71H63.3433ZM59.4073 71.192C58.3993 71.192 57.5353 71.024 56.8153 70.688C56.0953 70.336 55.5433 69.864 55.1593 69.272C54.7753 68.68 54.5833 68.016 54.5833 67.28C54.5833 66.512 54.7673 65.84 55.1353 65.264C55.5193 64.688 56.1193 64.24 56.9353 63.92C57.7513 63.584 58.8153 63.416 60.1273 63.416H63.5593V65.6H60.5353C59.6553 65.6 59.0473 65.744 58.7113 66.032C58.3913 66.32 58.2313 66.68 58.2313 67.112C58.2313 67.592 58.4153 67.976 58.7833 68.264C59.1673 68.536 59.6873 68.672 60.3433 68.672C60.9673 68.672 61.5273 68.528 62.0233 68.24C62.5193 67.936 62.8793 67.496 63.1033 66.92L63.6793 68.648C63.4073 69.48 62.9113 70.112 62.1913 70.544C61.4713 70.976 60.5433 71.192 59.4073 71.192ZM83.2727 71.192C81.8807 71.192 80.6407 70.912 79.5527 70.352C78.4647 69.776 77.6087 68.984 76.9847 67.976C76.3767 66.968 76.0727 65.824 76.0727 64.544C76.0727 63.248 76.3767 62.104 76.9847 61.112C77.6087 60.104 78.4647 59.32 79.5527 58.76C80.6407 58.184 81.8807 57.896 83.2727 57.896C84.6327 57.896 85.8167 58.184 86.8247 58.76C87.8327 59.32 88.5767 60.128 89.0567 61.184L86.1527 62.744C85.8167 62.136 85.3927 61.688 84.8807 61.4C84.3847 61.112 83.8407 60.968 83.2487 60.968C82.6087 60.968 82.0327 61.112 81.5207 61.4C81.0087 61.688 80.6007 62.096 80.2967 62.624C80.0087 63.152 79.8647 63.792 79.8647 64.544C79.8647 65.296 80.0087 65.936 80.2967 66.464C80.6007 66.992 81.0087 67.4 81.5207 67.688C82.0327 67.976 82.6087 68.12 83.2487 68.12C83.8407 68.12 84.3847 67.984 84.8807 67.712C85.3927 67.424 85.8167 66.968 86.1527 66.344L89.0567 67.928C88.5767 68.968 87.8327 69.776 86.8247 70.352C85.8167 70.912 84.6327 71.192 83.2727 71.192ZM97.1923 71.192C95.8163 71.192 94.5923 70.904 93.5203 70.328C92.4643 69.752 91.6243 68.968 91.0003 67.976C90.3923 66.968 90.0883 65.824 90.0883 64.544C90.0883 63.248 90.3923 62.104 91.0003 61.112C91.6243 60.104 92.4643 59.32 93.5203 58.76C94.5923 58.184 95.8163 57.896 97.1923 57.896C98.5523 57.896 99.7683 58.184 100.84 58.76C101.912 59.32 102.752 60.096 103.36 61.088C103.968 62.08 104.272 63.232 104.272 64.544C104.272 65.824 103.968 66.968 103.36 67.976C102.752 68.968 101.912 69.752 100.84 70.328C99.7683 70.904 98.5523 71.192 97.1923 71.192ZM97.1923 68.12C97.8163 68.12 98.3763 67.976 98.8723 67.688C99.3683 67.4 99.7603 66.992 100.048 66.464C100.336 65.92 100.48 65.28 100.48 64.544C100.48 63.792 100.336 63.152 100.048 62.624C99.7603 62.096 99.3683 61.688 98.8723 61.4C98.3763 61.112 97.8163 60.968 97.1923 60.968C96.5683 60.968 96.0083 61.112 95.5123 61.4C95.0163 61.688 94.6163 62.096 94.3123 62.624C94.0243 63.152 93.8803 63.792 93.8803 64.544C93.8803 65.28 94.0243 65.92 94.3123 66.464C94.6163 66.992 95.0163 67.4 95.5123 67.688C96.0083 67.976 96.5683 68.12 97.1923 68.12ZM123.311 57.896C124.335 57.896 125.239 58.104 126.023 58.52C126.823 58.92 127.447 59.544 127.895 60.392C128.359 61.224 128.591 62.296 128.591 63.608V71H124.847V64.184C124.847 63.144 124.631 62.376 124.199 61.88C123.767 61.384 123.159 61.136 122.375 61.136C121.831 61.136 121.343 61.264 120.911 61.52C120.479 61.76 120.143 62.128 119.903 62.624C119.663 63.12 119.543 63.752 119.543 64.52V71H115.799V64.184C115.799 63.144 115.583 62.376 115.151 61.88C114.735 61.384 114.135 61.136 113.351 61.136C112.807 61.136 112.319 61.264 111.887 61.52C111.455 61.76 111.119 62.128 110.879 62.624C110.639 63.12 110.519 63.752 110.519 64.52V71H106.775V58.088H110.351V61.616L109.679 60.584C110.127 59.704 110.759 59.04 111.575 58.592C112.407 58.128 113.351 57.896 114.407 57.896C115.591 57.896 116.623 58.2 117.503 58.808C118.399 59.4 118.991 60.312 119.279 61.544L117.959 61.184C118.391 60.176 119.079 59.376 120.023 58.784C120.983 58.192 122.079 57.896 123.311 57.896ZM138.185 71.192C136.809 71.192 135.585 70.904 134.513 70.328C133.457 69.752 132.617 68.968 131.993 67.976C131.385 66.968 131.081 65.824 131.081 64.544C131.081 63.248 131.385 62.104 131.993 61.112C132.617 60.104 133.457 59.32 134.513 58.76C135.585 58.184 136.809 57.896 138.185 57.896C139.545 57.896 140.761 58.184 141.833 58.76C142.905 59.32 143.745 60.096 144.353 61.088C144.961 62.08 145.265 63.232 145.265 64.544C145.265 65.824 144.961 66.968 144.353 67.976C143.745 68.968 142.905 69.752 141.833 70.328C140.761 70.904 139.545 71.192 138.185 71.192ZM138.185 68.12C138.809 68.12 139.369 67.976 139.865 67.688C140.361 67.4 140.753 66.992 141.041 66.464C141.329 65.92 141.473 65.28 141.473 64.544C141.473 63.792 141.329 63.152 141.041 62.624C140.753 62.096 140.361 61.688 139.865 61.4C139.369 61.112 138.809 60.968 138.185 60.968C137.561 60.968 137.001 61.112 136.505 61.4C136.009 61.688 135.609 62.096 135.305 62.624C135.017 63.152 134.873 63.792 134.873 64.544C134.873 65.28 135.017 65.92 135.305 66.464C135.609 66.992 136.009 67.4 136.505 67.688C137.001 67.976 137.561 68.12 138.185 68.12Z" fill="white"/>
<line x1="74" y1="8.74229e-08" x2="74" y2="38" stroke="#F2A950" stroke-width="4"/>
<path d="M74 127L85.547 107L62.453 107L74 127ZM72 87L72 109L76 109L76 87L72 87Z" fill="#F2A950"/>
</svg>
