<svg width="77" height="77" viewBox="0 0 77 77" fill="none" xmlns="http://www.w3.org/2000/svg">
<g clip-path="url(#clip0_876_1091)">
<path d="M64.1716 68.2473L58.4418 56.3514C57.2086 53.8098 55.6144 51.96 52.8623 53.0879L47.4332 55.1031C43.0869 57.1184 40.9212 55.1031 38.7406 52.0652L28.9652 29.8225C27.732 27.2809 28.3787 24.8897 31.1308 23.7617L38.7255 20.7238C41.4777 19.5809 41.0416 17.2047 39.8084 14.6631L33.2964 2.54161C32.0632 8.40053e-06 29.5367 -0.616593 26.7845 0.511336C21.2802 2.78223 16.7234 6.34649 13.7607 11.6252C10.1513 18.077 11.956 27.0553 12.6779 30.8301C13.3998 34.6049 15.9263 41.2221 19.1898 48.0047C22.4533 54.8023 25.3107 60.1412 27.8824 63.1641C30.439 66.1869 36.575 74.4584 44.1697 76.3082C50.3959 77.8121 57.1183 76.5488 62.6226 74.2779C65.3898 73.1951 65.3898 70.8039 64.1716 68.2473Z" fill="#97BF95"/>
</g>
<defs>
<clipPath id="clip0_876_1091">
<rect width="77" height="77" fill="white"/>
</clipPath>
</defs>
</svg>
